{
  "accessors": [
    {
      "bufferView": 2,
      "componentType": 5126,
      "count": 16176,
      "max": [
        0.33482784032821655,
        -0.13233168423175812,
        0.20670153200626373
      ],
      "min": [
        -0.09743165969848633,
        -0.2745354175567627,
        -0.20670153200626373
      ],
      "type": "VEC3"
    },
    {
      "bufferView": 2,
      "byteOffset": 194112,
      "componentType": 5126,
      "count": 16176,
      "max": [
        0.999888002872467,
        0.9999997615814209,
        0.9999996423721313
      ],
      "min": [
        -0.9994207620620728,
        -1.0,
        -0.9999996423721313
      ],
      "type": "VEC3"
    },
    {
      "bufferView": 3,
      "componentType": 5126,
      "count": 16176,
      "max": [
        0.9999995827674866,
        0.9361956715583801,
        0.999984085559845,
        1.0
      ],
      "min": [
        -0.9999997019767761,
        -0.8818259835243225,
        -0.9999841451644897,
        -1.0
      ],
      "type": "VEC4"
    },
    {
      "bufferView": 1,
      "componentType": 5126,
      "count": 16176,
      "max": [
        0.9994999766349792,
        0.9903637170791626
      ],
      "min": [
        0.0005000000237487257,
        0.0005000000237487257
      ],
      "type": "VEC2"
    },
    {
      "bufferView": 0,
      "componentType": 5125,
      "count": 92400,
      "type": "SCALAR"
    }
  ],
  "asset": {
    "extras": {
      "author": "3dia (https://sketchfab.com/3dia)",
      "license": "SKETCHFAB Standard (https://sketchfab.com/licenses)",
      "source": "https://sketchfab.com/3d-models/white-slip-on-white-sneakers-sports-shoes-cd73cb3c2cad4591a69e693988d3a7ae",
      "title": "White Slip On White Sneakers Sports Shoes"
    },
    "generator": "Sketchfab-13.68.0",
    "version": "2.0"
  },
  "bufferViews": [
    {
      "buffer": 0,
      "byteLength": 369600,
      "name": "floatBufferViews",
      "target": 34963
    },
    {
      "buffer": 0,
      "byteLength": 129408,
      "byteOffset": 369600,
      "byteStride": 8,
      "name": "floatBufferViews",
      "target": 34962
    },
    {
      "buffer": 0,
      "byteLength": 388224,
      "byteOffset": 499008,
      "byteStride": 12,
      "name": "floatBufferViews",
      "target": 34962
    },
    {
      "buffer": 0,
      "byteLength": 258816,
      "byteOffset": 887232,
      "byteStride": 16,
      "name": "floatBufferViews",
      "target": 34962
    }
  ],
  "buffers": [
    {
      "byteLength": 1146048,
      "uri": "scene.bin"
    }
  ],
  "images": [
    {
      "uri": "textures/Material_52_baseColor.png"
    },
    {
      "uri": "textures/Material_52_metallicRoughness.png"
    },
    {
      "uri": "textures/Material_52_normal.png"
    }
  ],
  "materials": [
    {
      "doubleSided": true,
      "name": "Material_52",
      "normalTexture": {
        "index": 2
      },
      "occlusionTexture": {
        "index": 1
      },
      "pbrMetallicRoughness": {
        "baseColorTexture": {
          "index": 0
        },
        "metallicRoughnessTexture": {
          "index": 1
        }
      }
    }
  ],
  "meshes": [
    {
      "name": "Boot_Material #52_0",
      "primitives": [
        {
          "attributes": {
            "NORMAL": 1,
            "POSITION": 0,
            "TANGENT": 2,
            "TEXCOORD_0": 3
          },
          "indices": 4,
          "material": 0,
          "mode": 4
        }
      ]
    }
  ],
  "nodes": [
    {
      "children": [
        1
      ],
      "matrix": [
        264.8225402832031,
        0.0,
        0.0,
        0.0,
        0.0,
        5.880241633242703e-14,
        -264.8225402832031,
        0.0,
        0.0,
        264.8225402832031,
        5.880241633242703e-14,
        0.0,
        0.0,
        0.0,
        0.0,
        1.0
      ],
      "name": "Sketchfab_model"
    },
    {
      "children": [
        2
      ],
      "matrix": [
        0.009999999776482582,
        0.0,
        0.0,
        0.0,
        0.0,
        0.0,
        0.009999999776482582,
        0.0,
        0.0,
        -0.009999999776482582,
        0.0,
        0.0,
        0.0,
        0.0,
        0.0,
        1.0
      ],
      "name": "659b0d5c9ad646efb60076d1a5648100.fbx"
    },
    {
      "children": [
        3
      ],
      "name": "RootNode"
    },
    {
      "children": [
        4
      ],
      "name": "Boot"
    },
    {
      "mesh": 0,
      "name": "Boot_Material #52_0"
    }
  ],
  "samplers": [
    {
      "magFilter": 9729,
      "minFilter": 9987,
      "wrapS": 10497,
      "wrapT": 10497
    }
  ],
  "scene": 0,
  "scenes": [
    {
      "name": "Sketchfab_Scene",
      "nodes": [
        0
      ]
    }
  ],
  "textures": [
    {
      "sampler": 0,
      "source": 0
    },
    {
      "sampler": 0,
      "source": 1
    },
    {
      "sampler": 0,
      "source": 2
    }
  ]
}
