<svg version="1.1" id="Layer_1" xmlns="http://www.w3.org/2000/svg" xmlns:xlink="http://www.w3.org/1999/xlink" x="0px" y="0px"
	 width="100%" viewBox="0 0 50 50" enable-background="new 0 0 50 50" xml:space="preserve">
<path fill="#FFFFFF" opacity="1.000000" stroke="none" 
	d="
M37.017303,51.000000 
	C25.514750,51.000000 14.514194,50.928482 3.516140,51.062340 
	C1.400227,51.088089 0.916315,50.692944 0.934424,48.514980 
	C1.059129,33.516449 1.053330,18.515978 0.939162,3.517277 
	C0.923110,1.408354 1.308623,0.917111 3.483577,0.935020 
	C18.482130,1.058521 33.482582,1.053034 48.481293,0.939417 
	C50.586895,0.923467 51.083046,1.304905 51.065086,3.482146 
	C50.941345,18.480694 50.947269,33.481148 51.060337,48.479866 
	C51.076183,50.582169 50.713627,51.204742 48.515736,51.063778 
	C44.864204,50.829578 41.186722,51.000000 37.017303,51.000000 
z"/>
<path fill="#103F8C" opacity="1.000000" stroke="none" 
	d="
M42.480656,32.944984 
	C42.796612,37.502327 44.382446,43.140808 42.249352,46.083729 
	C40.197701,48.914280 34.199417,46.835197 29.941921,46.961140 
	C24.458675,47.123333 18.960363,46.839611 13.481640,47.065575 
	C10.572819,47.185547 9.734016,46.173111 9.951783,43.412025 
	C10.173420,40.601871 10.012338,37.761528 10.091885,34.474640 
	C13.897065,32.842037 17.234730,35.631084 21.272675,35.033321 
	C25.144051,34.417656 28.643015,34.851997 32.511829,34.993412 
	C36.130138,34.992119 39.054989,33.603634 42.480656,32.944984 
z"/>
<path fill="#2E7AD5" opacity="1.000000" stroke="none" 
	d="
M11.075843,23.332180 
	C9.157169,19.382580 10.338120,15.609387 10.097336,11.508801 
	C15.319334,11.420529 20.520418,11.230064 25.980902,12.595264 
	C28.370232,16.457052 28.892593,20.255659 27.601400,24.656847 
	C26.169418,26.184488 24.641350,26.286983 22.667702,26.396526 
	C18.373096,26.299601 14.458027,26.492510 11.075843,23.332180 
z"/>
<path fill="#42A3EE" opacity="1.000000" stroke="none" 
	d="
M26.339012,13.346587 
	C20.962858,12.396576 15.616195,14.385880 10.499949,11.224188 
	C9.582740,8.269650 10.136255,6.829369 13.574161,6.922621 
	C22.218887,7.157106 30.874920,7.060973 39.524853,6.961402 
	C41.910969,6.933937 43.478283,7.311635 42.899483,10.602913 
	C37.952183,15.082747 32.567165,15.940468 26.339012,13.346587 
z"/>
<path fill="#2B7BD3" opacity="1.000000" stroke="none" 
	d="
M26.003391,13.519300 
	C31.541012,13.841877 36.950825,13.542061 42.464897,11.072611 
	C42.881935,14.403180 42.929844,17.770166 42.910072,21.593449 
	C40.653084,25.593624 36.686653,25.072687 33.010048,26.220680 
	C30.876736,26.392265 29.174391,26.406637 27.297260,25.247517 
	C27.307739,21.212488 26.708502,17.567179 26.003391,13.519300 
z"/>
<path fill="#1C59B5" opacity="1.000000" stroke="none" 
	d="
M10.541412,23.166668 
	C14.174346,24.295895 17.554649,25.169073 21.571106,25.016777 
	C23.290815,28.527472 22.625000,31.943253 21.279835,35.702244 
	C17.429634,36.531750 14.074433,35.765793 10.529736,34.056015 
	C10.172561,30.479015 10.180190,26.943151 10.541412,23.166668 
z"/>
<path fill="#1A5BBB" opacity="1.000000" stroke="none" 
	d="
M32.700203,25.418880 
	C36.062969,24.139830 39.127911,23.246275 42.517624,22.201233 
	C42.887482,25.410431 42.932575,28.771116 42.907341,32.587189 
	C40.194271,35.138905 37.199966,36.166023 33.410202,36.016510 
	C30.749353,32.738686 31.194454,29.293993 32.700203,25.418880 
z"/>
<path fill="#1B5AB8" opacity="1.000000" stroke="none" 
	d="
M32.569748,25.021431 
	C32.999138,28.390081 33.000256,31.746780 33.002792,35.563934 
	C29.308653,36.027996 25.613091,36.031605 21.470936,36.049828 
	C21.166643,32.641861 20.423994,29.143982 21.946091,25.429197 
	C23.386614,25.008003 24.775881,24.992064 26.581459,24.957996 
	C28.712337,24.963074 30.426907,24.986277 32.569748,25.021431 
z"/>
</svg>