<svg version="1.2" baseProfile="tiny-ps" xmlns="http://www.w3.org/2000/svg" viewBox="0 0 1510 335" width="1510" height="335">
	<title>Northrop_Grumman_logo_blue-on-clear_2020-svg</title>
	<style>
		tspan { white-space:pre }
		.shp0 { fill: #000000 } 
	</style>
	<g id="g896">
		<g id="g899">
			<path id="path3456" fill-rule="evenodd" class="shp0" d="M0.18 5.76L37.55 5.76L104.52 90.61L104.52 5.76L141.81 5.76L141.81 148.9L103.37 148.9L37.55 63.51L37.55 148.9L0.18 148.9L0.18 5.76ZM159.45 77.15C159.45 54.74 167.14 36.24 182.66 21.65C197.8 7.62 216.31 0.54 238.56 0.54C260.8 0.54 279.69 7.83 294.84 22.39C309.98 36.79 317.46 54.74 317.46 75.86C317.46 98.64 309.79 117.52 294.46 132.47C279.32 146.86 260.62 154.15 238.37 154.15C215.35 154.15 196.49 146.86 181.72 132.28C166.76 117.7 159.45 99.38 159.45 77.15ZM268.1 107.24C275.76 99.38 279.69 89.11 279.69 76.58C279.69 65.01 275.76 55.29 267.91 47.45C260.06 39.59 250.15 35.67 238.37 35.67C226.41 35.67 216.68 39.78 208.83 47.62C201.16 55.48 197.23 65.56 197.23 77.71C197.23 89.85 200.98 99.76 208.66 107.62C216.12 115.27 226.03 119.19 238.18 119.19C250.34 119.19 260.24 115.27 268.1 107.24ZM337.8 5.76L394.81 5.76C409.04 5.76 420.43 9.7 429.58 17.35C438.93 25.57 443.81 36.6 443.81 50.61C443.81 70.42 435.57 83.51 419.12 89.68L457.45 148.9L412.76 148.9L382.67 98.45L375.13 98.45L375.13 148.9L337.8 148.9L337.8 5.76ZM386.4 70.23C399.3 70.23 405.65 64.25 405.65 52.3C405.65 40.34 399.49 34.34 386.78 34.34L375.13 34.34L375.13 70.23L386.4 70.23ZM492.45 43.09L462.14 43.09L462.14 5.75L560.1 5.75L560.1 43.09L529.78 43.09L529.78 148.91L492.45 148.91L492.45 43.09ZM583.67 5.76L621.01 5.76L621.01 56.34L673.45 56.34L673.45 5.76L710.8 5.76L710.8 148.92L673.45 148.92L673.45 93.68L621.01 93.68L621.01 148.92L583.67 148.92L583.67 5.76ZM738.68 5.76L795.7 5.76C809.91 5.76 821.32 9.7 830.47 17.35C839.81 25.57 844.68 36.6 844.68 50.61C844.68 70.42 836.46 83.51 820.01 89.68L858.34 148.9L813.64 148.9L783.55 98.45L776.02 98.45L776.02 148.9L738.68 148.9L738.68 5.76ZM787.29 70.23C800.17 70.23 806.54 64.25 806.54 52.3C806.54 40.34 800.38 34.34 787.65 34.34L776.02 34.34L776.02 70.23L787.29 70.23ZM863.7 77.15C863.7 54.74 871.39 36.24 886.91 21.65C902.05 7.62 920.56 0.54 942.8 0.54C965.07 0.54 983.92 7.83 999.07 22.39C1014.21 36.79 1021.7 54.74 1021.7 75.86C1021.7 98.64 1014.03 117.52 998.7 132.47C983.56 146.86 964.85 154.15 942.6 154.15C919.6 154.15 900.74 146.86 885.98 132.28C870.99 117.7 863.7 99.38 863.7 77.15ZM972.34 107.24C980 99.38 983.92 89.11 983.92 76.58C983.92 65.01 980 55.29 972.14 47.45C964.29 39.59 954.38 35.67 942.6 35.67C930.66 35.67 920.91 39.78 913.06 47.62C905.42 55.48 901.48 65.56 901.48 77.71C901.48 89.85 905.21 99.76 912.89 107.62C920.35 115.27 930.28 119.19 942.43 119.19C954.59 119.19 964.48 115.27 972.34 107.24ZM1045.03 5.76L1108.98 5.76C1122.81 5.76 1134.03 10.24 1142.06 19.59C1150.13 28.19 1154.04 39.76 1154.04 53.79C1154.04 67.24 1150.13 78.07 1142.06 86.29C1134.22 94.7 1123.38 99.02 1110.1 99.02L1082.38 99.02L1082.38 148.9L1045.03 148.9L1045.03 5.76ZM1094.77 71.54C1109.53 71.54 1116.82 65.18 1116.82 52.3C1116.82 39.97 1109.72 33.98 1095.13 33.98L1082.38 33.98L1082.38 71.54L1094.77 71.54ZM180.4 312.76C166.57 298.18 159.46 279.86 159.46 258.01C159.46 236.51 166.57 218.39 180.4 203.62C194.79 188.5 212.56 181.02 233.89 181.02C262.67 181.02 284.16 192.97 298.56 216.89L268.66 233.35C267.92 231.47 266.39 229.41 264.15 226.98C256.14 218.02 245.83 213.54 233.5 213.54C221.16 213.54 211.99 218.39 205.83 227.91C200.6 235.95 197.97 246.42 197.97 259.5C197.97 272.76 201.15 283.04 207.33 290.71C214.07 299.12 223.98 303.23 236.87 303.23C244.35 303.23 251.27 300.81 257.44 296.13C264.15 291.08 267.92 285.11 268.66 277.82L235.76 277.82L235.76 247.91L307.54 247.91L307.54 255.77C307.54 280.05 301.56 299.12 289.39 312.95C276.68 327.34 258.36 334.63 234.24 334.63C212.37 334.63 194.44 327.34 180.4 312.76ZM329.75 186.26L386.77 186.26C400.98 186.26 412.38 190.19 421.54 197.84C430.9 206.06 435.75 217.09 435.75 231.1C435.75 250.91 427.52 264 411.08 270.17L449.41 329.4L404.71 329.4L374.62 278.94L367.09 278.94L367.09 329.4L329.75 329.4L329.75 186.26ZM378.35 250.72C391.24 250.72 397.61 244.74 397.61 232.79C397.61 220.82 391.45 214.84 378.72 214.84L367.09 214.84L367.09 250.72L378.35 250.72ZM481.22 322.11C468.49 312.58 461.95 299.5 461.95 283.06L461.95 186.24L499.34 186.24L499.34 275.2C499.34 292.39 507.94 300.99 525.16 300.99C532.8 300.99 539.4 298.93 543.91 294.82C548.56 290.54 551 284.55 551 277.07L551 186.24L588.35 186.24L588.35 278.95C588.35 297.07 582.16 311.09 569.64 321.18C558.25 330.14 543.11 334.63 524.39 334.63C507.19 334.63 492.8 330.52 481.22 322.11ZM699.44 260.23L746.73 186.26L784.09 186.26L784.09 329.41L746.8 329.41L746.8 245.4L746.73 245.4L709.5 303.79L689.7 303.79L652.28 245.4L652.22 245.4L652.22 329.41L614.79 329.41L614.79 186.26L652.22 186.26L699.44 260.23ZM899.46 260.23L946.74 186.26L984.11 186.26L984.11 329.41L946.81 329.41L946.81 245.4L946.74 245.4L909.53 303.79L889.73 303.79L852.31 245.4L852.17 245.4L852.15 329.41L814.81 329.41L814.81 186.26L852.23 186.26L899.46 260.23ZM1056.28 186.25L1099.03 186.25L1152.13 329.4L1111.73 329.4L1102.01 302.87L1052.49 302.87L1042.95 329.4L1003.1 329.4L1056.28 186.25ZM1092.29 274.08L1077.15 230.35L1061.82 274.08L1092.29 274.08ZM1172.71 186.25L1210.11 186.25L1275.99 271.1L1275.99 186.25L1313.31 186.25L1313.31 329.41L1275.91 329.41L1210.08 244L1210.08 329.41L1172.71 329.41L1172.71 186.25ZM1509.99 5.76L1509.99 329.39L1472.62 329.39L1472.62 43.13L1172.71 43.13L1172.71 5.76L1509.99 5.76Z" />
		</g>
	</g>
</svg>