<?xml version="1.0" encoding="UTF-8"?>
<svg width="353.92" height="304.64" inkscape:version="1.0.2 (e86c870879, 2021-01-15)" sodipodi:docname="VxWorks_symbol.svg" version="1.1" viewBox="0 0 353.92 304.64" xmlns="http://www.w3.org/2000/svg" xmlns:cc="http://creativecommons.org/ns#" xmlns:dc="http://purl.org/dc/elements/1.1/" xmlns:inkscape="http://www.inkscape.org/namespaces/inkscape" xmlns:rdf="http://www.w3.org/1999/02/22-rdf-syntax-ns#" xmlns:sodipodi="http://sodipodi.sourceforge.net/DTD/sodipodi-0.dtd">
 <metadata>
  <rdf:RDF>
   <cc:Work rdf:about="">
    <dc:format>image/svg+xml</dc:format>
    <dc:type rdf:resource="http://purl.org/dc/dcmitype/StillImage"/>
    <dc:title/>
   </cc:Work>
  </rdf:RDF>
 </metadata>
 <sodipodi:namedview bordercolor="#666666" borderopacity="1" gridtolerance="10" guidetolerance="10" inkscape:current-layer="g1293" inkscape:cx="202.86539" inkscape:cy="149.97975" inkscape:pageopacity="0" inkscape:pageshadow="2" inkscape:window-height="1014" inkscape:window-maximized="1" inkscape:window-width="1920" inkscape:window-x="0" inkscape:window-y="36" inkscape:zoom="1.9056415" objecttolerance="10" pagecolor="#ffffff" showgrid="false"/>
 <g inkscape:groupmode="layer" inkscape:label="Image">
  <path d="m221.5 301.83c0-0.1179 7.4384-13.537 16.53-29.82 9.0913-16.283 16.715-29.947 16.941-30.365 0.31153-0.57427 33.093 56.826 34.156 59.808 0.12962 0.36351-12.872 0.59175-33.708 0.59175-18.655 0-33.919-0.0964-33.919-0.21437zm-48.949-4.9376c-0.51786-0.81112-38.176-65.801-83.684-144.42-45.508-78.621-83.697-144.58-84.864-146.58l-2.1213-3.6322 117.92 0.32206 56.27 97.165c30.948 53.441 56.154 97.603 56.013 98.139-0.2029 0.76771-57.682 99.451-58.403 100.27-0.10292 0.11689-0.61081-0.45111-1.1287-1.2622zm53.38-178.47c-15.493-27.051-28.104-49.413-28.024-49.693 0.08-0.28046 8.6256-15.199 18.99-33.153l18.845-32.643 24.687-0.01775c13.578-0.00986 39.426-0.2058 57.439-0.43569l32.751-0.41799-47.938 82.779c-26.366 45.529-48.083 82.776-48.26 82.772-0.17701-4e-3 -12.998-22.14-28.491-49.191z" fill="#d12628" stroke-width=".63206"/>
 </g>
</svg>
