{
  "accessors": [
    {
      "bufferView": 2,
      "componentType": 5126,
      "count": 11570,
      "max": [
        1.7263209819793701,
        -0.18536899983882904,
        -1.8616689443588257
      ],
      "min": [
        -1.7263200283050537,
        -1.7683360576629639,
        -3.073620080947876
      ],
      "type": "VEC3"
    },
    {
      "bufferView": 2,
      "byteOffset": 138840,
      "componentType": 5126,
      "count": 11570,
      "max": [
        1.0,
        1.0,
        1.0
      ],
      "min": [
        -1.0,
        -1.0,
        -1.0
      ],
      "type": "VEC3"
    },
    {
      "bufferView": 3,
      "componentType": 5126,
      "count": 11570,
      "max": [
        1.0,
        1.0,
        1.0,
        1.0
      ],
      "min": [
        -1.0,
        -1.0,
        -1.0,
        -1.0
      ],
      "type": "VEC4"
    },
    {
      "bufferView": 1,
      "componentType": 5126,
      "count": 11570,
      "max": [
        0.8201090097427368,
        0.9887880086898804
      ],
      "min": [
        0.009580999612808228,
        0.30204400420188904
      ],
      "type": "VEC2"
    },
    {
      "bufferView": 0,
      "componentType": 5125,
      "count": 31002,
      "type": "SCALAR"
    },
    {
      "bufferView": 2,
      "byteOffset": 277680,
      "componentType": 5126,
      "count": 11041,
      "max": [
        0.3021099865436554,
        -0.03347799926996231,
        3.821197032928467
      ],
      "min": [
        -0.3021079897880554,
        -1.7688510417938232,
        1.468533992767334
      ],
      "type": "VEC3"
    },
    {
      "bufferView": 2,
      "byteOffset": 410172,
      "componentType": 5126,
      "count": 11041,
      "max": [
        1.0,
        1.0,
        1.0
      ],
      "min": [
        -1.0,
        -1.0,
        -1.0
      ],
      "type": "VEC3"
    },
    {
      "bufferView": 3,
      "byteOffset": 185120,
      "componentType": 5126,
      "count": 11041,
      "max": [
        1.0,
        1.0,
        1.0,
        1.0
      ],
      "min": [
        -1.0,
        -1.0,
        -1.0,
        -1.0
      ],
      "type": "VEC4"
    },
    {
      "bufferView": 1,
      "byteOffset": 92560,
      "componentType": 5126,
      "count": 11041,
      "max": [
        0.5925970077514648,
        0.9853529930114746
      ],
      "min": [
        0.027650000527501106,
        0.788677990436554
      ],
      "type": "VEC2"
    },
    {
      "bufferView": 0,
      "byteOffset": 124008,
      "componentType": 5125,
      "count": 28212,
      "type": "SCALAR"
    },
    {
      "bufferView": 2,
      "byteOffset": 542664,
      "componentType": 5126,
      "count": 143,
      "max": [
        1.0737370252609253,
        -0.30692198872566223,
        -1.613150954246521
      ],
      "min": [
        0.2151080071926117,
        -0.48597899079322815,
        -2.851989984512329
      ],
      "type": "VEC3"
    },
    {
      "bufferView": 2,
      "byteOffset": 544380,
      "componentType": 5126,
      "count": 143,
      "max": [
        0.9960601329803467,
        0.6903300881385803,
        0.9999890923500061
      ],
      "min": [
        -0.845008909702301,
        -0.9998939037322998,
        -0.9999914765357971
      ],
      "type": "VEC3"
    },
    {
      "bufferView": 3,
      "byteOffset": 361776,
      "componentType": 5126,
      "count": 143,
      "max": [
        0.9985973834991455,
        0.9827178716659546,
        0.1924619972705841,
        -1.0
      ],
      "min": [
        -0.5451269149780273,
        -0.9999901652336121,
        -0.9999988675117493,
        -1.0
      ],
      "type": "VEC4"
    },
    {
      "bufferView": 1,
      "byteOffset": 180888,
      "componentType": 5126,
      "count": 143,
      "max": [
        0.9057160019874573,
        0.9204559922218323
      ],
      "min": [
        0.3080059885978699,
        0.3725750148296356
      ],
      "type": "VEC2"
    },
    {
      "bufferView": 0,
      "byteOffset": 236856,
      "componentType": 5125,
      "count": 432,
      "type": "SCALAR"
    },
    {
      "bufferView": 2,
      "byteOffset": 546096,
      "componentType": 5126,
      "count": 375,
      "max": [
        1.0721900463104248,
        -0.27109798789024353,
        -1.6136469841003418
      ],
      "min": [
        0.21981500089168549,
        -0.4496529996395111,
        -2.851989984512329
      ],
      "type": "VEC3"
    },
    {
      "bufferView": 2,
      "byteOffset": 550596,
      "componentType": 5126,
      "count": 375,
      "max": [
        0.9987067580223083,
        0.9998756647109985,
        0.9972614645957947
      ],
      "min": [
        -0.9990637898445129,
        -0.9966132640838623,
        -0.9972352385520935
      ],
      "type": "VEC3"
    },
    {
      "bufferView": 3,
      "byteOffset": 364064,
      "componentType": 5126,
      "count": 375,
      "max": [
        0.9992393255233765,
        0.9975649118423462,
        0.1399790346622467,
        -1.0
      ],
      "min": [
        -0.9979802370071411,
        -0.6791979074478149,
        -0.9987513422966003,
        -1.0
      ],
      "type": "VEC4"
    },
    {
      "bufferView": 1,
      "byteOffset": 182032,
      "componentType": 5126,
      "count": 375,
      "max": [
        0.7506499886512756,
        0.6616780161857605
      ],
      "min": [
        0.05905799940228462,
        0.21277399361133575
      ],
      "type": "VEC2"
    },
    {
      "bufferView": 0,
      "byteOffset": 238584,
      "componentType": 5125,
      "count": 630,
      "type": "SCALAR"
    },
    {
      "bufferView": 2,
      "byteOffset": 555096,
      "componentType": 5126,
      "count": 90,
      "max": [
        0.7064229846000671,
        -0.3070859909057617,
        -2.8567891120910645
      ],
      "min": [
        0.21144500374794006,
        -0.4563649892807007,
        -3.7022290229797363
      ],
      "type": "VEC3"
    },
    {
      "bufferView": 2,
      "byteOffset": 556176,
      "componentType": 5126,
      "count": 90,
      "max": [
        0.9998311400413513,
        0.8908473253250122,
        0.9999511241912842
      ],
      "min": [
        -0.8919190168380737,
        -0.9993802309036255,
        -0.9993034601211548
      ],
      "type": "VEC3"
    },
    {
      "bufferView": 3,
      "byteOffset": 370064,
      "componentType": 5126,
      "count": 90,
      "max": [
        0.8913314342498779,
        0.995283842086792,
        0.9994539022445679,
        -1.0
      ],
      "min": [
        -0.999995231628418,
        -0.9999512434005737,
        -0.02339807152748108,
        -1.0
      ],
      "type": "VEC4"
    },
    {
      "bufferView": 1,
      "byteOffset": 185032,
      "componentType": 5126,
      "count": 90,
      "max": [
        0.9845860004425049,
        0.9928810000419617
      ],
      "min": [
        0.25885099172592163,
        0.6679419875144958
      ],
      "type": "VEC2"
    },
    {
      "bufferView": 0,
      "byteOffset": 241104,
      "componentType": 5125,
      "count": 264,
      "type": "SCALAR"
    },
    {
      "bufferView": 2,
      "byteOffset": 557256,
      "componentType": 5126,
      "count": 297,
      "max": [
        0.7058349847793579,
        -0.2660030126571655,
        -2.8567891120910645
      ],
      "min": [
        0.21744899451732635,
        -0.44936999678611755,
        -3.702117919921875
      ],
      "type": "VEC3"
    },
    {
      "bufferView": 2,
      "byteOffset": 560820,
      "componentType": 5126,
      "count": 297,
      "max": [
        0.9744672179222107,
        0.9996849894523621,
        0.9878485798835754
      ],
      "min": [
        -0.9693549871444702,
        -0.9794483780860901,
        -0.9916130900382996
      ],
      "type": "VEC3"
    },
    {
      "bufferView": 3,
      "byteOffset": 371504,
      "componentType": 5126,
      "count": 297,
      "max": [
        0.9999614953994751,
        0.9920844435691833,
        0.9892226457595825,
        -1.0
      ],
      "min": [
        -0.9999991655349731,
        -0.7515841722488403,
        -0.9990116357803345,
        -1.0
      ],
      "type": "VEC4"
    },
    {
      "bufferView": 1,
      "byteOffset": 185752,
      "componentType": 5126,
      "count": 297,
      "max": [
        0.7258340120315552,
        0.7465969920158386
      ],
      "min": [
        0.0005000000237487257,
        0.09199800342321396
      ],
      "type": "VEC2"
    },
    {
      "bufferView": 0,
      "byteOffset": 242160,
      "componentType": 5125,
      "count": 654,
      "type": "SCALAR"
    },
    {
      "bufferView": 2,
      "byteOffset": 564384,
      "componentType": 5126,
      "count": 90,
      "max": [
        -0.21144600212574005,
        -0.3070859909057617,
        -2.8567891120910645
      ],
      "min": [
        -0.7064229846000671,
        -0.4563649892807007,
        -3.7022290229797363
      ],
      "type": "VEC3"
    },
    {
      "bufferView": 2,
      "byteOffset": 565464,
      "componentType": 5126,
      "count": 90,
      "max": [
        0.8919190168380737,
        0.8908473253250122,
        0.9999511241912842
      ],
      "min": [
        -0.9998311400413513,
        -0.9993802309036255,
        -0.9993034601211548
      ],
      "type": "VEC3"
    },
    {
      "bufferView": 3,
      "byteOffset": 376256,
      "componentType": 5126,
      "count": 90,
      "max": [
        0.9999951720237732,
        0.98661869764328,
        0.9994538426399231,
        1.0
      ],
      "min": [
        -0.8913313746452332,
        -0.9999512434005737,
        -0.02339807152748108,
        1.0
      ],
      "type": "VEC4"
    },
    {
      "bufferView": 1,
      "byteOffset": 188128,
      "componentType": 5126,
      "count": 90,
      "max": [
        0.9845860004425049,
        0.9928810000419617
      ],
      "min": [
        0.25885099172592163,
        0.6679419875144958
      ],
      "type": "VEC2"
    },
    {
      "bufferView": 0,
      "byteOffset": 244776,
      "componentType": 5125,
      "count": 264,
      "type": "SCALAR"
    },
    {
      "bufferView": 2,
      "byteOffset": 566544,
      "componentType": 5126,
      "count": 297,
      "max": [
        -0.21744899451732635,
        -0.2660030126571655,
        -2.8567891120910645
      ],
      "min": [
        -0.7058349847793579,
        -0.44936999678611755,
        -3.702117919921875
      ],
      "type": "VEC3"
    },
    {
      "bufferView": 2,
      "byteOffset": 570108,
      "componentType": 5126,
      "count": 297,
      "max": [
        0.9693549871444702,
        0.9996849894523621,
        0.9878485798835754
      ],
      "min": [
        -0.9744672179222107,
        -0.9794483780860901,
        -0.9916130900382996
      ],
      "type": "VEC3"
    },
    {
      "bufferView": 3,
      "byteOffset": 377696,
      "componentType": 5126,
      "count": 297,
      "max": [
        0.9999991655349731,
        0.9920844435691833,
        0.9882386922836304,
        1.0
      ],
      "min": [
        -0.9999614953994751,
        -0.7515842318534851,
        -0.9990116357803345,
        1.0
      ],
      "type": "VEC4"
    },
    {
      "bufferView": 1,
      "byteOffset": 188848,
      "componentType": 5126,
      "count": 297,
      "max": [
        0.7258340120315552,
        0.7465969920158386
      ],
      "min": [
        0.0005000000237487257,
        0.09199800342321396
      ],
      "type": "VEC2"
    },
    {
      "bufferView": 0,
      "byteOffset": 245832,
      "componentType": 5125,
      "count": 654,
      "type": "SCALAR"
    },
    {
      "bufferView": 2,
      "byteOffset": 573672,
      "componentType": 5126,
      "count": 54,
      "max": [
        -0.6993889808654785,
        -0.33257898688316345,
        -2.85555100440979
      ],
      "min": [
        -1.098634958267212,
        -0.4453650116920471,
        -3.703510046005249
      ],
      "type": "VEC3"
    },
    {
      "bufferView": 2,
      "byteOffset": 574320,
      "componentType": 5126,
      "count": 54,
      "max": [
        0.9984740018844604,
        0.4135662317276001,
        0.9997695088386536
      ],
      "min": [
        -0.9145650267601013,
        -0.9983078837394714,
        -0.9984682202339172
      ],
      "type": "VEC3"
    },
    {
      "bufferView": 3,
      "byteOffset": 382448,
      "componentType": 5126,
      "count": 54,
      "max": [
        0.0015597372548654675,
        0.4156656861305237,
        0.9999821186065674,
        1.0
      ],
      "min": [
        -0.9984717965126038,
        -0.9986937046051025,
        -0.3843685984611511,
        1.0
      ],
      "type": "VEC4"
    },
    {
      "bufferView": 1,
      "byteOffset": 191224,
      "componentType": 5126,
      "count": 54,
      "max": [
        0.827243983745575,
        0.9684829711914063
      ],
      "min": [
        0.4658760130405426,
        0.540336012840271
      ],
      "type": "VEC2"
    },
    {
      "bufferView": 0,
      "byteOffset": 248448,
      "componentType": 5125,
      "count": 129,
      "type": "SCALAR"
    },
    {
      "bufferView": 2,
      "byteOffset": 574968,
      "componentType": 5126,
      "count": 120,
      "max": [
        -0.6993889808654785,
        -0.3276970088481903,
        -2.85555100440979
      ],
      "min": [
        -1.0957950353622437,
        -0.43837299942970276,
        -3.7031519412994385
      ],
      "type": "VEC3"
    },
    {
      "bufferView": 2,
      "byteOffset": 576408,
      "componentType": 5126,
      "count": 120,
      "max": [
        0.9340086579322815,
        0.9988216161727905,
        0.8785257339477539
      ],
      "min": [
        -0.7047884464263916,
        0.35590508580207825,
        -0.836246907711029
      ],
      "type": "VEC3"
    },
    {
      "bufferView": 3,
      "byteOffset": 383312,
      "componentType": 5126,
      "count": 120,
      "max": [
        0.9992349147796631,
        0.7859862446784973,
        0.4846355617046356,
        1.0
      ],
      "min": [
        -0.9998676776885986,
        -0.873744010925293,
        -0.9998971819877625,
        1.0
      ],
      "type": "VEC4"
    },
    {
      "bufferView": 1,
      "byteOffset": 191656,
      "componentType": 5126,
      "count": 120,
      "max": [
        0.6700900197029114,
        0.7460079789161682
      ],
      "min": [
        0.26767298579216003,
        0.27865201234817505
      ],
      "type": "VEC2"
    },
    {
      "bufferView": 0,
      "byteOffset": 248964,
      "componentType": 5125,
      "count": 207,
      "type": "SCALAR"
    },
    {
      "bufferView": 2,
      "byteOffset": 577848,
      "componentType": 5126,
      "count": 54,
      "max": [
        1.098634958267212,
        -0.33257898688316345,
        -2.85555100440979
      ],
      "min": [
        0.6993889808654785,
        -0.4453650116920471,
        -3.703510046005249
      ],
      "type": "VEC3"
    },
    {
      "bufferView": 2,
      "byteOffset": 578496,
      "componentType": 5126,
      "count": 54,
      "max": [
        0.9145650267601013,
        0.4135662317276001,
        0.9997695088386536
      ],
      "min": [
        -0.9984740018844604,
        -0.9983078837394714,
        -0.9984682202339172
      ],
      "type": "VEC3"
    },
    {
      "bufferView": 3,
      "byteOffset": 385232,
      "componentType": 5126,
      "count": 54,
      "max": [
        0.9984717965126038,
        0.41566577553749084,
        0.9999821186065674,
        -1.0
      ],
      "min": [
        -0.001559136318974197,
        -0.9986937642097473,
        -0.3843730092048645,
        -1.0
      ],
      "type": "VEC4"
    },
    {
      "bufferView": 1,
      "byteOffset": 192616,
      "componentType": 5126,
      "count": 54,
      "max": [
        0.827243983745575,
        0.9684829711914063
      ],
      "min": [
        0.4658760130405426,
        0.540336012840271
      ],
      "type": "VEC2"
    },
    {
      "bufferView": 0,
      "byteOffset": 249792,
      "componentType": 5125,
      "count": 129,
      "type": "SCALAR"
    },
    {
      "bufferView": 2,
      "byteOffset": 579144,
      "componentType": 5126,
      "count": 120,
      "max": [
        1.0957950353622437,
        -0.3276970088481903,
        -2.85555100440979
      ],
      "min": [
        0.6993889808654785,
        -0.43837401270866394,
        -3.7031519412994385
      ],
      "type": "VEC3"
    },
    {
      "bufferView": 2,
      "byteOffset": 580584,
      "componentType": 5126,
      "count": 120,
      "max": [
        0.7047884464263916,
        0.9988216161727905,
        0.8785257339477539
      ],
      "min": [
        -0.9340086579322815,
        0.35590508580207825,
        -0.836246907711029
      ],
      "type": "VEC3"
    },
    {
      "bufferView": 3,
      "byteOffset": 386096,
      "componentType": 5126,
      "count": 120,
      "max": [
        0.9998677968978882,
        0.7859861850738525,
        0.48463547229766846,
        -1.0
      ],
      "min": [
        -0.9992349743843079,
        -0.8737436532974243,
        -0.9998971819877625,
        -1.0
      ],
      "type": "VEC4"
    },
    {
      "bufferView": 1,
      "byteOffset": 193048,
      "componentType": 5126,
      "count": 120,
      "max": [
        0.6700900197029114,
        0.7460079789161682
      ],
      "min": [
        0.26767298579216003,
        0.27865201234817505
      ],
      "type": "VEC2"
    },
    {
      "bufferView": 0,
      "byteOffset": 250308,
      "componentType": 5125,
      "count": 207,
      "type": "SCALAR"
    },
    {
      "bufferView": 2,
      "byteOffset": 582024,
      "componentType": 5126,
      "count": 281,
      "max": [
        0.19100600481033325,
        -0.20113499462604523,
        2.72707200050354
      ],
      "min": [
        -0.19100600481033325,
        -0.8840069770812988,
        1.5050840377807617
      ],
      "type": "VEC3"
    },
    {
      "bufferView": 2,
      "byteOffset": 585396,
      "componentType": 5126,
      "count": 281,
      "max": [
        0.9999998807907104,
        0.9780305027961731,
        0.9766847491264343
      ],
      "min": [
        -0.9999998807907104,
        -0.9773539900779724,
        -0.8710238337516785
      ],
      "type": "VEC3"
    },
    {
      "bufferView": 3,
      "byteOffset": 388016,
      "componentType": 5126,
      "count": 281,
      "max": [
        1.0,
        0.9851295351982117,
        0.9773848056793213,
        1.0
      ],
      "min": [
        -0.9999222159385681,
        -0.9973908066749573,
        -0.9781325459480286,
        1.0
      ],
      "type": "VEC4"
    },
    {
      "bufferView": 1,
      "byteOffset": 194008,
      "componentType": 5126,
      "count": 281,
      "max": [
        0.8736770153045654,
        0.9977880120277405
      ],
      "min": [
        0.031005999073386192,
        0.15731100738048553
      ],
      "type": "VEC2"
    },
    {
      "bufferView": 0,
      "byteOffset": 251136,
      "componentType": 5125,
      "count": 744,
      "type": "SCALAR"
    },
    {
      "bufferView": 2,
      "byteOffset": 588768,
      "componentType": 5126,
      "count": 38,
      "max": [
        -0.18191500008106232,
        -0.22640299797058105,
        4.1725850105285645
      ],
      "min": [
        -0.2990790009498596,
        -0.5986599922180176,
        2.8909618854522705
      ],
      "type": "VEC3"
    },
    {
      "bufferView": 2,
      "byteOffset": 589224,
      "componentType": 5126,
      "count": 38,
      "max": [
        0.4391738772392273,
        0.8984007835388184,
        0.9999725818634033
      ],
      "min": [
        -0.9974783658981323,
        -0.9976248741149902,
        -0.999930739402771
      ],
      "type": "VEC3"
    },
    {
      "bufferView": 3,
      "byteOffset": 392512,
      "componentType": 5126,
      "count": 38,
      "max": [
        0.9615809917449951,
        0.0011230265954509377,
        0.010506553575396538,
        1.0
      ],
      "min": [
        -0.9999419450759888,
        -0.2762695252895355,
        -0.999998927116394,
        1.0
      ],
      "type": "VEC4"
    },
    {
      "bufferView": 1,
      "byteOffset": 196256,
      "componentType": 5126,
      "count": 38,
      "max": [
        0.9072859883308411,
        0.9443809986114502
      ],
      "min": [
        0.24936099350452423,
        0.665988028049469
      ],
      "type": "VEC2"
    },
    {
      "bufferView": 0,
      "byteOffset": 254112,
      "componentType": 5125,
      "count": 84,
      "type": "SCALAR"
    },
    {
      "bufferView": 2,
      "byteOffset": 589680,
      "componentType": 5126,
      "count": 147,
      "max": [
        -0.17980900406837463,
        -0.23209799826145172,
        4.1725850105285645
      ],
      "min": [
        -0.28708401322364807,
        -0.5986599922180176,
        2.8911008834838867
      ],
      "type": "VEC3"
    },
    {
      "bufferView": 2,
      "byteOffset": 591444,
      "componentType": 5126,
      "count": 147,
      "max": [
        0.9987255334854126,
        0.9659304022789001,
        0.9999949932098389
      ],
      "min": [
        -0.25883999466896057,
        -0.9659263491630554,
        -0.9999949932098389
      ],
      "type": "VEC3"
    },
    {
      "bufferView": 3,
      "byteOffset": 393120,
      "componentType": 5126,
      "count": 147,
      "max": [
        0.9782416820526123,
        0.9999997615814209,
        0.9050833582878113,
        1.0
      ],
      "min": [
        -0.45911625027656555,
        -0.9989148378372192,
        -1.0,
        1.0
      ],
      "type": "VEC4"
    },
    {
      "bufferView": 1,
      "byteOffset": 196560,
      "componentType": 5126,
      "count": 147,
      "max": [
        0.5952330231666565,
        0.7469760179519653
      ],
      "min": [
        0.09199800342321396,
        0.011479999870061874
      ],
      "type": "VEC2"
    },
    {
      "bufferView": 0,
      "byteOffset": 254448,
      "componentType": 5125,
      "count": 312,
      "type": "SCALAR"
    },
    {
      "bufferView": 2,
      "byteOffset": 593208,
      "componentType": 5126,
      "count": 44,
      "max": [
        -0.36638399958610535,
        -0.0894939973950386,
        4.962615966796875
      ],
      "min": [
        -0.4685310125350952,
        -0.4904640018939972,
        4.173295021057129
      ],
      "type": "VEC3"
    },
    {
      "bufferView": 2,
      "byteOffset": 593736,
      "componentType": 5126,
      "count": 44,
      "max": [
        0.6021212935447693,
        0.7984046936035156,
        0.9999402165412903
      ],
      "min": [
        -0.9973298907279968,
        -0.9808606505393982,
        -0.9999736547470093
      ],
      "type": "VEC3"
    },
    {
      "bufferView": 3,
      "byteOffset": 395472,
      "componentType": 5126,
      "count": 44,
      "max": [
        0.9899604320526123,
        0.6021120548248291,
        0.06260629743337631,
        1.0
      ],
      "min": [
        -0.7983837723731995,
        -0.9974684715270996,
        -0.023342862725257874,
        1.0
      ],
      "type": "VEC4"
    },
    {
      "bufferView": 1,
      "byteOffset": 197736,
      "componentType": 5126,
      "count": 44,
      "max": [
        0.5740249752998352,
        0.943560004234314
      ],
      "min": [
        0.03653800114989281,
        0.8102549910545349
      ],
      "type": "VEC2"
    },
    {
      "bufferView": 0,
      "byteOffset": 255696,
      "componentType": 5125,
      "count": 102,
      "type": "SCALAR"
    },
    {
      "bufferView": 2,
      "byteOffset": 594264,
      "componentType": 5126,
      "count": 152,
      "max": [
        -0.3635219931602478,
        -0.09713300317525864,
        4.962615966796875
      ],
      "min": [
        -0.4565669894218445,
        -0.48821499943733215,
        4.173354148864746
      ],
      "type": "VEC3"
    },
    {
      "bufferView": 2,
      "byteOffset": 596088,
      "componentType": 5126,
      "count": 152,
      "max": [
        0.997626781463623,
        0.6561251878738403,
        0.999871551990509
      ],
      "min": [
        -0.016648992896080017,
        -0.9697532653808594,
        -0.9998716711997986
      ],
      "type": "VEC3"
    },
    {
      "bufferView": 3,
      "byteOffset": 396176,
      "componentType": 5126,
      "count": 152,
      "max": [
        0.9901509284973145,
        0.9937528967857361,
        0.6944597959518433,
        1.0
      ],
      "min": [
        -0.9998942017555237,
        -0.139475479722023,
        -1.0,
        1.0
      ],
      "type": "VEC4"
    },
    {
      "bufferView": 1,
      "byteOffset": 198088,
      "componentType": 5126,
      "count": 152,
      "max": [
        0.749023973941803,
        0.6231430172920227
      ],
      "min": [
        0.13591599464416504,
        0.12493699789047241
      ],
      "type": "VEC2"
    },
    {
      "bufferView": 0,
      "byteOffset": 256104,
      "componentType": 5125,
      "count": 342,
      "type": "SCALAR"
    },
    {
      "bufferView": 2,
      "byteOffset": 597912,
      "componentType": 5126,
      "count": 44,
      "max": [
        0.4685310125350952,
        -0.0894939973950386,
        4.962615966796875
      ],
      "min": [
        0.36638399958610535,
        -0.4904640018939972,
        4.173295021057129
      ],
      "type": "VEC3"
    },
    {
      "bufferView": 2,
      "byteOffset": 598440,
      "componentType": 5126,
      "count": 44,
      "max": [
        0.9973298907279968,
        0.7984046936035156,
        0.9999402165412903
      ],
      "min": [
        -0.6021212935447693,
        -0.9808606505393982,
        -0.9999736547470093
      ],
      "type": "VEC3"
    },
    {
      "bufferView": 3,
      "byteOffset": 398608,
      "componentType": 5126,
      "count": 44,
      "max": [
        0.798405110836029,
        0.6021213531494141,
        0.034229446202516556,
        1.0
      ],
      "min": [
        -0.9999645948410034,
        -0.9974684715270996,
        -0.0005077203968539834,
        1.0
      ],
      "type": "VEC4"
    },
    {
      "bufferView": 1,
      "byteOffset": 199304,
      "componentType": 5126,
      "count": 44,
      "max": [
        0.6767709851264954,
        0.8724820017814636
      ],
      "min": [
        0.6513950228691101,
        0.8354889750480652
      ],
      "type": "VEC2"
    },
    {
      "bufferView": 0,
      "byteOffset": 257472,
      "componentType": 5125,
      "count": 102,
      "type": "SCALAR"
    },
    {
      "bufferView": 2,
      "byteOffset": 598968,
      "componentType": 5126,
      "count": 152,
      "max": [
        0.4565669894218445,
        -0.09713300317525864,
        4.962615966796875
      ],
      "min": [
        0.3635219931602478,
        -0.48821499943733215,
        4.173354148864746
      ],
      "type": "VEC3"
    },
    {
      "bufferView": 2,
      "byteOffset": 600792,
      "componentType": 5126,
      "count": 152,
      "max": [
        0.016648992896080017,
        0.6561251878738403,
        0.999871551990509
      ],
      "min": [
        -0.997626781463623,
        -0.9697532653808594,
        -0.9998716711997986
      ],
      "type": "VEC3"
    },
    {
      "bufferView": 3,
      "byteOffset": 399312,
      "componentType": 5126,
      "count": 152,
      "max": [
        0.9791404604911804,
        0.9979993104934692,
        0.07939193397760391,
        1.0
      ],
      "min": [
        -0.9901799559593201,
        -1.0,
        -0.9993909597396851,
        1.0
      ],
      "type": "VEC4"
    },
    {
      "bufferView": 1,
      "byteOffset": 199656,
      "componentType": 5126,
      "count": 152,
      "max": [
        0.7490339875221252,
        0.6190400123596191
      ],
      "min": [
        0.14323599636554718,
        0.06637799739837646
      ],
      "type": "VEC2"
    },
    {
      "bufferView": 0,
      "byteOffset": 257880,
      "componentType": 5125,
      "count": 342,
      "type": "SCALAR"
    },
    {
      "bufferView": 2,
      "byteOffset": 602616,
      "componentType": 5126,
      "count": 41963,
      "max": [
        6.000860214233398,
        3.302306890487671,
        8.724898338317871
      ],
      "min": [
        -6.000895977020264,
        -0.5203790068626404,
        -8.91203784942627
      ],
      "type": "VEC3"
    },
    {
      "bufferView": 2,
      "byteOffset": 1106172,
      "componentType": 5126,
      "count": 41963,
      "max": [
        1.0,
        1.0,
        1.0
      ],
      "min": [
        -1.0,
        -1.0,
        -1.0
      ],
      "type": "VEC3"
    },
    {
      "bufferView": 3,
      "byteOffset": 401744,
      "componentType": 5126,
      "count": 41963,
      "max": [
        1.0,
        1.0,
        1.0,
        1.0
      ],
      "min": [
        -1.0,
        -1.0,
        -1.0,
        -1.0
      ],
      "type": "VEC4"
    },
    {
      "bufferView": 1,
      "byteOffset": 200872,
      "componentType": 5126,
      "count": 41963,
      "max": [
        0.9953719973564148,
        0.9977589845657349
      ],
      "min": [
        0.0005000000237487257,
        0.0005000000237487257
      ],
      "type": "VEC2"
    },
    {
      "bufferView": 0,
      "byteOffset": 259248,
      "componentType": 5125,
      "count": 113010,
      "type": "SCALAR"
    },
    {
      "bufferView": 2,
      "byteOffset": 1609728,
      "componentType": 5126,
      "count": 15183,
      "max": [
        1.141577959060669,
        0.9718949794769287,
        6.5565080642700195
      ],
      "min": [
        -1.141577959060669,
        -0.6269440054893494,
        -8.457006454467773
      ],
      "type": "VEC3"
    },
    {
      "bufferView": 2,
      "byteOffset": 1791924,
      "componentType": 5126,
      "count": 15183,
      "max": [
        1.0,
        1.0,
        1.0
      ],
      "min": [
        -1.0,
        -1.0,
        -1.0
      ],
      "type": "VEC3"
    },
    {
      "bufferView": 3,
      "byteOffset": 1073152,
      "componentType": 5126,
      "count": 15183,
      "max": [
        1.0,
        1.0,
        1.0,
        1.0
      ],
      "min": [
        -1.0,
        -1.0,
        -1.0,
        -1.0
      ],
      "type": "VEC4"
    },
    {
      "bufferView": 1,
      "byteOffset": 536576,
      "componentType": 5126,
      "count": 15183,
      "max": [
        0.9577230215072632,
        0.9694300293922424
      ],
      "min": [
        0.0005000000237487257,
        0.0005000000237487257
      ],
      "type": "VEC2"
    },
    {
      "bufferView": 0,
      "byteOffset": 711288,
      "componentType": 5125,
      "count": 37842,
      "type": "SCALAR"
    },
    {
      "bufferView": 2,
      "byteOffset": 1974120,
      "componentType": 5126,
      "count": 25669,
      "max": [
        0.5335310101509094,
        1.8406130075454712,
        5.420841217041016
      ],
      "min": [
        -0.5335310101509094,
        0.45128801465034485,
        0.4895009994506836
      ],
      "type": "VEC3"
    },
    {
      "bufferView": 2,
      "byteOffset": 2282148,
      "componentType": 5126,
      "count": 25669,
      "max": [
        1.0,
        1.0,
        1.0
      ],
      "min": [
        -1.0,
        -1.0,
        -1.0
      ],
      "type": "VEC3"
    },
    {
      "bufferView": 3,
      "byteOffset": 1316080,
      "componentType": 5126,
      "count": 25669,
      "max": [
        1.0,
        1.0,
        1.0,
        1.0
      ],
      "min": [
        -1.0,
        -1.0,
        -1.0,
        -1.0
      ],
      "type": "VEC4"
    },
    {
      "bufferView": 1,
      "byteOffset": 658040,
      "componentType": 5126,
      "count": 25669,
      "max": [
        0.9969069957733154,
        0.9782940149307251
      ],
      "min": [
        0.0005000000237487257,
        0.004581000190228224
      ],
      "type": "VEC2"
    },
    {
      "bufferView": 0,
      "byteOffset": 862656,
      "componentType": 5125,
      "count": 54048,
      "type": "SCALAR"
    },
    {
      "bufferView": 2,
      "byteOffset": 2590176,
      "componentType": 5126,
      "count": 566,
      "max": [
        4.5456929206848145,
        1.6152830123901367,
        5.378582954406738
      ],
      "min": [
        -4.5456929206848145,
        0.30133599042892456,
        -2.616283893585205
      ],
      "type": "VEC3"
    },
    {
      "bufferView": 2,
      "byteOffset": 2596968,
      "componentType": 5126,
      "count": 566,
      "max": [
        1.0,
        0.9941025972366333,
        0.9145913124084473
      ],
      "min": [
        -1.0,
        -1.0,
        -0.9612022638320923
      ],
      "type": "VEC3"
    },
    {
      "bufferView": 3,
      "byteOffset": 1726784,
      "componentType": 5126,
      "count": 566,
      "max": [
        1.0,
        0.9873511791229248,
        1.0,
        1.0
      ],
      "min": [
        -1.0,
        -0.7583445310592651,
        -1.0,
        -1.0
      ],
      "type": "VEC4"
    },
    {
      "bufferView": 1,
      "byteOffset": 863392,
      "componentType": 5126,
      "count": 566,
      "max": [
        0.997639000415802,
        0.9963719844818115
      ],
      "min": [
        0.40413400530815125,
        0.037769999355077744
      ],
      "type": "VEC2"
    },
    {
      "bufferView": 0,
      "byteOffset": 1078848,
      "componentType": 5125,
      "count": 1902,
      "type": "SCALAR"
    },
    {
      "bufferView": 2,
      "byteOffset": 2603760,
      "componentType": 5126,
      "count": 1975,
      "max": [
        0.5339059829711914,
        1.9557729959487915,
        4.110630035400391
      ],
      "min": [
        -0.5339059829711914,
        1.0479919910430908,
        0.48989298939704895
      ],
      "type": "VEC3"
    },
    {
      "bufferView": 2,
      "byteOffset": 2627460,
      "componentType": 5126,
      "count": 1975,
      "max": [
        0.9999986290931702,
        0.999231219291687,
        0.9972814917564392
      ],
      "min": [
        -0.9999986290931702,
        -0.945784330368042,
        -0.9991748929023743
      ],
      "type": "VEC3"
    },
    {
      "bufferView": 3,
      "byteOffset": 1735840,
      "componentType": 5126,
      "count": 1975,
      "max": [
        1.0,
        0.9984255433082581,
        0.8067173361778259,
        1.0
      ],
      "min": [
        -1.0,
        -0.9956353902816772,
        -0.9999942779541016,
        1.0
      ],
      "type": "VEC4"
    },
    {
      "bufferView": 1,
      "byteOffset": 867920,
      "componentType": 5126,
      "count": 1975,
      "max": [
        0.9902889728546143,
        0.9936950206756592
      ],
      "min": [
        0.14267200231552124,
        0.056345000863075256
      ],
      "type": "VEC2"
    },
    {
      "bufferView": 0,
      "byteOffset": 1086456,
      "componentType": 5125,
      "count": 3888,
      "type": "SCALAR"
    },
    {
      "bufferView": 2,
      "byteOffset": 2651160,
      "componentType": 5126,
      "count": 3361,
      "max": [
        0.5077589750289917,
        1.9257709980010986,
        4.099442958831787
      ],
      "min": [
        -0.5077589750289917,
        1.0479919910430908,
        0.49564599990844727
      ],
      "type": "VEC3"
    },
    {
      "bufferView": 2,
      "byteOffset": 2691492,
      "componentType": 5126,
      "count": 3361,
      "max": [
        1.0,
        1.0,
        1.0
      ],
      "min": [
        -1.0,
        -0.9999996423721313,
        -0.9999996423721313
      ],
      "type": "VEC3"
    },
    {
      "bufferView": 3,
      "byteOffset": 1767440,
      "componentType": 5126,
      "count": 3361,
      "max": [
        1.0,
        0.9999995231628418,
        1.0,
        1.0
      ],
      "min": [
        -1.0,
        -1.0,
        -0.9999997019767761,
        1.0
      ],
      "type": "VEC4"
    },
    {
      "bufferView": 1,
      "byteOffset": 883720,
      "componentType": 5126,
      "count": 3361,
      "max": [
        0.6748089790344238,
        0.6768029928207397
      ],
      "min": [
        0.0005000000237487257,
        0.0005000000237487257
      ],
      "type": "VEC2"
    },
    {
      "bufferView": 0,
      "byteOffset": 1102008,
      "componentType": 5125,
      "count": 6594,
      "type": "SCALAR"
    },
    {
      "bufferView": 2,
      "byteOffset": 2731824,
      "componentType": 5126,
      "count": 800,
      "max": [
        0.4468410015106201,
        1.9608919620513916,
        4.071333885192871
      ],
      "min": [
        -0.4468410015106201,
        1.193524956703186,
        0.7151470184326172
      ],
      "type": "VEC3"
    },
    {
      "bufferView": 2,
      "byteOffset": 2741424,
      "componentType": 5126,
      "count": 800,
      "max": [
        0.9997942447662354,
        0.9999996423721313,
        0.9997391104698181
      ],
      "min": [
        -0.9997941255569458,
        -0.9999996423721313,
        -0.9954507350921631
      ],
      "type": "VEC3"
    },
    {
      "bufferView": 3,
      "byteOffset": 1821216,
      "componentType": 5126,
      "count": 800,
      "max": [
        0.9999999403953552,
        0.9924187660217285,
        0.9999995827674866,
        1.0
      ],
      "min": [
        -1.0,
        -0.9950426816940308,
        -0.9966750741004944,
        1.0
      ],
      "type": "VEC4"
    },
    {
      "bufferView": 1,
      "byteOffset": 910608,
      "componentType": 5126,
      "count": 800,
      "max": [
        0.9994999766349792,
        0.996025025844574
      ],
      "min": [
        0.0005000000237487257,
        0.0005000000237487257
      ],
      "type": "VEC2"
    },
    {
      "bufferView": 0,
      "byteOffset": 1128384,
      "componentType": 5125,
      "count": 3300,
      "type": "SCALAR"
    },
    {
      "bufferView": 2,
      "byteOffset": 2751024,
      "componentType": 5126,
      "count": 20971,
      "max": [
        5.96902322769165,
        5.615349769592285,
        -3.380207061767578
      ],
      "min": [
        -4.563496112823486,
        -2.3715438842773438,
        -4.873103141784668
      ],
      "type": "VEC3"
    },
    {
      "bufferView": 2,
      "byteOffset": 3002676,
      "componentType": 5126,
      "count": 20971,
      "max": [
        1.0,
        1.0,
        0.9998410940170288
      ],
      "min": [
        -1.0,
        -1.0,
        -0.9998948574066162
      ],
      "type": "VEC3"
    },
    {
      "bufferView": 3,
      "byteOffset": 1834016,
      "componentType": 5126,
      "count": 20971,
      "max": [
        1.0,
        0.9999993443489075,
        1.0,
        1.0
      ],
      "min": [
        -1.0,
        -0.999982476234436,
        -1.0,
        -1.0
      ],
      "type": "VEC4"
    },
    {
      "bufferView": 1,
      "byteOffset": 917008,
      "componentType": 5126,
      "count": 20971,
      "max": [
        0.9938870072364807,
        0.9994999766349792
      ],
      "min": [
        0.0005000000237487257,
        0.0005000000237487257
      ],
      "type": "VEC2"
    },
    {
      "bufferView": 1,
      "byteOffset": 1084776,
      "componentType": 5126,
      "count": 20971,
      "max": [
        438850.125,
        117761.0
      ],
      "min": [
        -92800.0,
        -893701.0
      ],
      "type": "VEC2"
    },
    {
      "bufferView": 0,
      "byteOffset": 1141584,
      "componentType": 5125,
      "count": 51900,
      "type": "SCALAR"
    },
    {
      "bufferView": 2,
      "byteOffset": 3254328,
      "componentType": 5126,
      "count": 143,
      "max": [
        -0.2151080071926117,
        -0.30692198872566223,
        -1.6131500005722046
      ],
      "min": [
        -1.0737370252609253,
        -0.48597899079322815,
        -2.851989984512329
      ],
      "type": "VEC3"
    },
    {
      "bufferView": 2,
      "byteOffset": 3256044,
      "componentType": 5126,
      "count": 143,
      "max": [
        0.845008909702301,
        0.6903300881385803,
        0.9999890923500061
      ],
      "min": [
        -0.9960601329803467,
        -0.9998939037322998,
        -0.9999914765357971
      ],
      "type": "VEC3"
    },
    {
      "bufferView": 3,
      "byteOffset": 2169552,
      "componentType": 5126,
      "count": 143,
      "max": [
        0.5451266169548035,
        0.9827265739440918,
        0.1924571692943573,
        1.0
      ],
      "min": [
        -0.9999186992645264,
        -0.9999901056289673,
        -0.9999988079071045,
        1.0
      ],
      "type": "VEC4"
    },
    {
      "bufferView": 1,
      "byteOffset": 1252544,
      "componentType": 5126,
      "count": 143,
      "max": [
        0.9057160019874573,
        0.9204559922218323
      ],
      "min": [
        0.3080059885978699,
        0.37229400873184204
      ],
      "type": "VEC2"
    },
    {
      "bufferView": 0,
      "byteOffset": 1349184,
      "componentType": 5125,
      "count": 432,
      "type": "SCALAR"
    },
    {
      "bufferView": 2,
      "byteOffset": 3257760,
      "componentType": 5126,
      "count": 375,
      "max": [
        -0.21981500089168549,
        -0.27109798789024353,
        -1.6136469841003418
      ],
      "min": [
        -1.0721900463104248,
        -0.4496519863605499,
        -2.851989984512329
      ],
      "type": "VEC3"
    },
    {
      "bufferView": 2,
      "byteOffset": 3262260,
      "componentType": 5126,
      "count": 375,
      "max": [
        0.9990637898445129,
        0.9998756647109985,
        0.9972614645957947
      ],
      "min": [
        -0.9987067580223083,
        -0.9966132640838623,
        -0.9972352385520935
      ],
      "type": "VEC3"
    },
    {
      "bufferView": 3,
      "byteOffset": 2171840,
      "componentType": 5126,
      "count": 375,
      "max": [
        0.9979803562164307,
        0.9979987740516663,
        0.1399790197610855,
        1.0
      ],
      "min": [
        -0.9992393255233765,
        -0.6791936755180359,
        -0.9987513422966003,
        1.0
      ],
      "type": "VEC4"
    },
    {
      "bufferView": 1,
      "byteOffset": 1253688,
      "componentType": 5126,
      "count": 375,
      "max": [
        0.7506499886512756,
        0.6616780161857605
      ],
      "min": [
        0.05905799940228462,
        0.21277399361133575
      ],
      "type": "VEC2"
    },
    {
      "bufferView": 0,
      "byteOffset": 1350912,
      "componentType": 5125,
      "count": 630,
      "type": "SCALAR"
    }
  ],
  "asset": {
    "extras": {
      "author": "Tim Samedov (https://sketchfab.com/citizensnip)",
      "license": "SKETCHFAB Editorial (https://sketchfab.com/licenses)",
      "source": "https://sketchfab.com/3d-models/fa-18-bd-hornet-ec3b72e281b3478199775a0e96368943",
      "title": "F/A-18 B/D Hornet"
    },
    "generator": "Sketchfab-15.5.0",
    "version": "2.0"
  },
  "bufferViews": [
    {
      "buffer": 0,
      "byteLength": 1353432,
      "name": "floatBufferViews",
      "target": 34963
    },
    {
      "buffer": 0,
      "byteLength": 1256688,
      "byteOffset": 1353432,
      "byteStride": 8,
      "name": "floatBufferViews",
      "target": 34962
    },
    {
      "buffer": 0,
      "byteLength": 3266760,
      "byteOffset": 2610120,
      "byteStride": 12,
      "name": "floatBufferViews",
      "target": 34962
    },
    {
      "buffer": 0,
      "byteLength": 2177840,
      "byteOffset": 5876880,
      "byteStride": 16,
      "name": "floatBufferViews",
      "target": 34962
    }
  ],
  "buffers": [
    {
      "byteLength": 8054720,
      "uri": "scene.bin"
    }
  ],
  "images": [
    {
      "uri": "textures/Fuz18_baseColor.jpeg"
    },
    {
      "uri": "textures/Fuz18_metallicRoughness.png"
    },
    {
      "uri": "textures/Fuz18_normal.png"
    },
    {
      "uri": "textures/Int18_baseColor.jpeg"
    },
    {
      "uri": "textures/Int18_metallicRoughness.png"
    },
    {
      "uri": "textures/Int18_normal.png"
    },
    {
      "uri": "textures/Weapons18_baseColor.jpeg"
    },
    {
      "uri": "textures/Weapons18_metallicRoughness.png"
    },
    {
      "uri": "textures/Weapons18_normal.png"
    },
    {
      "uri": "textures/Cockpit_baseColor.jpeg"
    },
    {
      "uri": "textures/Cockpit_metallicRoughness.png"
    },
    {
      "uri": "textures/Cockpit_normal.png"
    },
    {
      "uri": "textures/Glass18_baseColor.png"
    },
    {
      "uri": "textures/Glass18_metallicRoughness.png"
    },
    {
      "uri": "textures/Glass18_emissive.jpeg"
    },
    {
      "uri": "textures/Glass18_normal.png"
    }
  ],
  "materials": [
    {
      "doubleSided": true,
      "name": "Fuz18",
      "normalTexture": {
        "index": 2
      },
      "occlusionTexture": {
        "index": 1
      },
      "pbrMetallicRoughness": {
        "baseColorTexture": {
          "index": 0
        },
        "metallicRoughnessTexture": {
          "index": 1
        }
      }
    },
    {
      "doubleSided": true,
      "name": "Int18",
      "normalTexture": {
        "index": 5
      },
      "occlusionTexture": {
        "index": 4
      },
      "pbrMetallicRoughness": {
        "baseColorTexture": {
          "index": 3
        },
        "metallicRoughnessTexture": {
          "index": 4
        }
      }
    },
    {
      "doubleSided": true,
      "name": "Weapons18",
      "normalTexture": {
        "index": 8
      },
      "occlusionTexture": {
        "index": 7
      },
      "pbrMetallicRoughness": {
        "baseColorTexture": {
          "index": 6
        },
        "metallicRoughnessTexture": {
          "index": 7
        }
      }
    },
    {
      "doubleSided": true,
      "name": "Cockpit",
      "normalTexture": {
        "index": 11
      },
      "occlusionTexture": {
        "index": 10
      },
      "pbrMetallicRoughness": {
        "baseColorTexture": {
          "index": 9
        },
        "metallicRoughnessTexture": {
          "index": 10
        }
      }
    },
    {
      "alphaMode": "BLEND",
      "doubleSided": true,
      "emissiveFactor": [
        1.0,
        1.0,
        1.0
      ],
      "emissiveTexture": {
        "index": 14
      },
      "name": "Glass18",
      "normalTexture": {
        "index": 15
      },
      "occlusionTexture": {
        "index": 13
      },
      "pbrMetallicRoughness": {
        "baseColorTexture": {
          "index": 12
        },
        "metallicRoughnessTexture": {
          "index": 13
        }
      }
    }
  ],
  "meshes": [
    {
      "name": "defaultMaterial",
      "primitives": [
        {
          "attributes": {
            "NORMAL": 1,
            "POSITION": 0,
            "TANGENT": 2,
            "TEXCOORD_0": 3
          },
          "indices": 4,
          "material": 1,
          "mode": 4
        }
      ]
    },
    {
      "name": "defaultMaterial",
      "primitives": [
        {
          "attributes": {
            "NORMAL": 6,
            "POSITION": 5,
            "TANGENT": 7,
            "TEXCOORD_0": 8
          },
          "indices": 9,
          "material": 1,
          "mode": 4
        }
      ]
    },
    {
      "name": "defaultMaterial",
      "primitives": [
        {
          "attributes": {
            "NORMAL": 11,
            "POSITION": 10,
            "TANGENT": 12,
            "TEXCOORD_0": 13
          },
          "indices": 14,
          "material": 0,
          "mode": 4
        }
      ]
    },
    {
      "name": "defaultMaterial",
      "primitives": [
        {
          "attributes": {
            "NORMAL": 16,
            "POSITION": 15,
            "TANGENT": 17,
            "TEXCOORD_0": 18
          },
          "indices": 19,
          "material": 1,
          "mode": 4
        }
      ]
    },
    {
      "name": "defaultMaterial",
      "primitives": [
        {
          "attributes": {
            "NORMAL": 21,
            "POSITION": 20,
            "TANGENT": 22,
            "TEXCOORD_0": 23
          },
          "indices": 24,
          "material": 0,
          "mode": 4
        }
      ]
    },
    {
      "name": "defaultMaterial",
      "primitives": [
        {
          "attributes": {
            "NORMAL": 26,
            "POSITION": 25,
            "TANGENT": 27,
            "TEXCOORD_0": 28
          },
          "indices": 29,
          "material": 1,
          "mode": 4
        }
      ]
    },
    {
      "name": "defaultMaterial",
      "primitives": [
        {
          "attributes": {
            "NORMAL": 31,
            "POSITION": 30,
            "TANGENT": 32,
            "TEXCOORD_0": 33
          },
          "indices": 34,
          "material": 0,
          "mode": 4
        }
      ]
    },
    {
      "name": "defaultMaterial",
      "primitives": [
        {
          "attributes": {
            "NORMAL": 36,
            "POSITION": 35,
            "TANGENT": 37,
            "TEXCOORD_0": 38
          },
          "indices": 39,
          "material": 1,
          "mode": 4
        }
      ]
    },
    {
      "name": "defaultMaterial",
      "primitives": [
        {
          "attributes": {
            "NORMAL": 41,
            "POSITION": 40,
            "TANGENT": 42,
            "TEXCOORD_0": 43
          },
          "indices": 44,
          "material": 0,
          "mode": 4
        }
      ]
    },
    {
      "name": "defaultMaterial",
      "primitives": [
        {
          "attributes": {
            "NORMAL": 46,
            "POSITION": 45,
            "TANGENT": 47,
            "TEXCOORD_0": 48
          },
          "indices": 49,
          "material": 1,
          "mode": 4
        }
      ]
    },
    {
      "name": "defaultMaterial",
      "primitives": [
        {
          "attributes": {
            "NORMAL": 51,
            "POSITION": 50,
            "TANGENT": 52,
            "TEXCOORD_0": 53
          },
          "indices": 54,
          "material": 0,
          "mode": 4
        }
      ]
    },
    {
      "name": "defaultMaterial",
      "primitives": [
        {
          "attributes": {
            "NORMAL": 56,
            "POSITION": 55,
            "TANGENT": 57,
            "TEXCOORD_0": 58
          },
          "indices": 59,
          "material": 1,
          "mode": 4
        }
      ]
    },
    {
      "name": "defaultMaterial",
      "primitives": [
        {
          "attributes": {
            "NORMAL": 61,
            "POSITION": 60,
            "TANGENT": 62,
            "TEXCOORD_0": 63
          },
          "indices": 64,
          "material": 0,
          "mode": 4
        }
      ]
    },
    {
      "name": "defaultMaterial",
      "primitives": [
        {
          "attributes": {
            "NORMAL": 66,
            "POSITION": 65,
            "TANGENT": 67,
            "TEXCOORD_0": 68
          },
          "indices": 69,
          "material": 0,
          "mode": 4
        }
      ]
    },
    {
      "name": "defaultMaterial",
      "primitives": [
        {
          "attributes": {
            "NORMAL": 71,
            "POSITION": 70,
            "TANGENT": 72,
            "TEXCOORD_0": 73
          },
          "indices": 74,
          "material": 1,
          "mode": 4
        }
      ]
    },
    {
      "name": "defaultMaterial",
      "primitives": [
        {
          "attributes": {
            "NORMAL": 76,
            "POSITION": 75,
            "TANGENT": 77,
            "TEXCOORD_0": 78
          },
          "indices": 79,
          "material": 0,
          "mode": 4
        }
      ]
    },
    {
      "name": "defaultMaterial",
      "primitives": [
        {
          "attributes": {
            "NORMAL": 81,
            "POSITION": 80,
            "TANGENT": 82,
            "TEXCOORD_0": 83
          },
          "indices": 84,
          "material": 1,
          "mode": 4
        }
      ]
    },
    {
      "name": "defaultMaterial",
      "primitives": [
        {
          "attributes": {
            "NORMAL": 86,
            "POSITION": 85,
            "TANGENT": 87,
            "TEXCOORD_0": 88
          },
          "indices": 89,
          "material": 0,
          "mode": 4
        }
      ]
    },
    {
      "name": "defaultMaterial",
      "primitives": [
        {
          "attributes": {
            "NORMAL": 91,
            "POSITION": 90,
            "TANGENT": 92,
            "TEXCOORD_0": 93
          },
          "indices": 94,
          "material": 1,
          "mode": 4
        }
      ]
    },
    {
      "name": "defaultMaterial",
      "primitives": [
        {
          "attributes": {
            "NORMAL": 96,
            "POSITION": 95,
            "TANGENT": 97,
            "TEXCOORD_0": 98
          },
          "indices": 99,
          "material": 0,
          "mode": 4
        }
      ]
    },
    {
      "name": "defaultMaterial",
      "primitives": [
        {
          "attributes": {
            "NORMAL": 101,
            "POSITION": 100,
            "TANGENT": 102,
            "TEXCOORD_0": 103
          },
          "indices": 104,
          "material": 1,
          "mode": 4
        }
      ]
    },
    {
      "name": "defaultMaterial",
      "primitives": [
        {
          "attributes": {
            "NORMAL": 106,
            "POSITION": 105,
            "TANGENT": 107,
            "TEXCOORD_0": 108
          },
          "indices": 109,
          "material": 3,
          "mode": 4
        }
      ]
    },
    {
      "name": "defaultMaterial",
      "primitives": [
        {
          "attributes": {
            "NORMAL": 111,
            "POSITION": 110,
            "TANGENT": 112,
            "TEXCOORD_0": 113
          },
          "indices": 114,
          "material": 4,
          "mode": 4
        }
      ]
    },
    {
      "name": "defaultMaterial",
      "primitives": [
        {
          "attributes": {
            "NORMAL": 116,
            "POSITION": 115,
            "TANGENT": 117,
            "TEXCOORD_0": 118
          },
          "indices": 119,
          "material": 0,
          "mode": 4
        }
      ]
    },
    {
      "name": "defaultMaterial",
      "primitives": [
        {
          "attributes": {
            "NORMAL": 121,
            "POSITION": 120,
            "TANGENT": 122,
            "TEXCOORD_0": 123
          },
          "indices": 124,
          "material": 3,
          "mode": 4
        }
      ]
    },
    {
      "name": "defaultMaterial",
      "primitives": [
        {
          "attributes": {
            "NORMAL": 126,
            "POSITION": 125,
            "TANGENT": 127,
            "TEXCOORD_0": 128
          },
          "indices": 129,
          "material": 4,
          "mode": 4
        }
      ]
    },
    {
      "name": "defaultMaterial",
      "primitives": [
        {
          "attributes": {
            "NORMAL": 131,
            "POSITION": 130,
            "TANGENT": 132,
            "TEXCOORD_0": 133,
            "TEXCOORD_1": 134
          },
          "indices": 135,
          "material": 2,
          "mode": 4
        }
      ]
    },
    {
      "name": "defaultMaterial",
      "primitives": [
        {
          "attributes": {
            "NORMAL": 137,
            "POSITION": 136,
            "TANGENT": 138,
            "TEXCOORD_0": 139
          },
          "indices": 140,
          "material": 0,
          "mode": 4
        }
      ]
    },
    {
      "name": "defaultMaterial",
      "primitives": [
        {
          "attributes": {
            "NORMAL": 142,
            "POSITION": 141,
            "TANGENT": 143,
            "TEXCOORD_0": 144
          },
          "indices": 145,
          "material": 1,
          "mode": 4
        }
      ]
    }
  ],
  "nodes": [
    {
      "children": [
        1
      ],
      "matrix": [
        1.0,
        0.0,
        0.0,
        0.0,
        0.0,
        2.220446049250313e-16,
        -1.0,
        0.0,
        0.0,
        1.0,
        2.220446049250313e-16,
        0.0,
        0.0,
        0.0,
        0.0,
        1.0
      ],
      "name": "Sketchfab_model"
    },
    {
      "children": [
        2,
        4,
        6,
        9,
        12,
        15,
        18,
        21,
        23,
        26,
        29,
        32,
        35,
        37,
        39,
        43,
        45
      ],
      "matrix": [
        1.0,
        0.0,
        0.0,
        0.0,
        0.0,
        -4.371139006309477e-08,
        0.999999999999999,
        0.0,
        0.0,
        -0.999999999999999,
        -4.371139006309477e-08,
        0.0,
        0.0,
        0.0,
        0.0,
        1.0
      ],
      "name": "Collada visual scene group"
    },
    {
      "children": [
        3
      ],
      "matrix": [
        1.0,
        0.0,
        0.0,
        0.0,
        0.0,
        1.0,
        0.0,
        0.0,
        0.0,
        0.0,
        1.0,
        0.0,
        0.0,
        1.63549,
        0.0,
        1.0
      ],
      "name": "Main_gear"
    },
    {
      "mesh": 0,
      "name": "defaultMaterial"
    },
    {
      "children": [
        5
      ],
      "matrix": [
        1.0,
        0.0,
        0.0,
        0.0,
        0.0,
        1.0,
        0.0,
        0.0,
        0.0,
        0.0,
        1.0,
        0.0,
        0.0,
        1.63549,
        0.0,
        1.0
      ],
      "name": "Nose_gear"
    },
    {
      "mesh": 1,
      "name": "defaultMaterial"
    },
    {
      "children": [
        7,
        8
      ],
      "matrix": [
        0.511464,
        -0.858077,
        0.045914,
        0.0,
        0.853028,
        0.500556,
        -0.147607,
        0.0,
        0.103676,
        0.114662,
        0.98798,
        0.0,
        0.661308,
        1.989882,
        -0.089399,
        1.0
      ],
      "name": "Md3_L"
    },
    {
      "mesh": 2,
      "name": "defaultMaterial"
    },
    {
      "mesh": 3,
      "name": "defaultMaterial"
    },
    {
      "children": [
        10,
        11
      ],
      "matrix": [
        0.0,
        -1.0,
        0.0,
        0.0,
        1.0,
        0.0,
        0.0,
        0.0,
        0.0,
        0.0,
        1.0,
        0.0,
        0.571698,
        1.48482,
        0.0,
        1.0
      ],
      "name": "Md1_L"
    },
    {
      "mesh": 4,
      "name": "defaultMaterial"
    },
    {
      "mesh": 5,
      "name": "defaultMaterial"
    },
    {
      "children": [
        13,
        14
      ],
      "matrix": [
        0.0,
        1.0,
        0.0,
        0.0,
        -1.0,
        0.0,
        0.0,
        0.0,
        0.0,
        0.0,
        1.0,
        0.0,
        -0.549796,
        1.513953,
        0.0,
        1.0
      ],
      "name": "Md1_R"
    },
    {
      "mesh": 6,
      "name": "defaultMaterial"
    },
    {
      "mesh": 7,
      "name": "defaultMaterial"
    },
    {
      "children": [
        16,
        17
      ],
      "matrix": [
        0.087156,
        -0.996195,
        0.0,
        0.0,
        0.996195,
        0.087156,
        0.0,
        0.0,
        0.0,
        0.0,
        1.0,
        0.0,
        -0.656313,
        0.232192,
        0.0,
        1.0
      ],
      "name": "Md2_R"
    },
    {
      "mesh": 8,
      "name": "defaultMaterial"
    },
    {
      "mesh": 9,
      "name": "defaultMaterial"
    },
    {
      "children": [
        19,
        20
      ],
      "matrix": [
        0.087156,
        0.996195,
        0.0,
        0.0,
        -0.996195,
        0.087156,
        0.0,
        0.0,
        0.0,
        0.0,
        1.0,
        0.0,
        0.647962,
        0.217318,
        0.0,
        1.0
      ],
      "name": "Md2_L"
    },
    {
      "mesh": 10,
      "name": "defaultMaterial"
    },
    {
      "mesh": 11,
      "name": "defaultMaterial"
    },
    {
      "children": [
        22
      ],
      "matrix": [
        1.0,
        0.0,
        0.0,
        0.0,
        0.0,
        1.0,
        0.0,
        0.0,
        0.0,
        0.0,
        1.0,
        0.0,
        0.0,
        1.63549,
        0.0,
        1.0
      ],
      "name": "ND3"
    },
    {
      "mesh": 12,
      "name": "defaultMaterial"
    },
    {
      "children": [
        24,
        25
      ],
      "matrix": [
        1.0,
        0.0,
        0.0,
        0.0,
        0.0,
        1.0,
        0.0,
        0.0,
        0.0,
        0.0,
        1.0,
        0.0,
        0.0,
        1.63549,
        0.0,
        1.0
      ],
      "name": "ND2"
    },
    {
      "mesh": 13,
      "name": "defaultMaterial"
    },
    {
      "mesh": 14,
      "name": "defaultMaterial"
    },
    {
      "children": [
        27,
        28
      ],
      "matrix": [
        1.0,
        0.0,
        0.0,
        0.0,
        0.0,
        1.0,
        0.0,
        0.0,
        0.0,
        0.0,
        1.0,
        0.0,
        0.0,
        1.63549,
        0.0,
        1.0
      ],
      "name": "ND1_R"
    },
    {
      "mesh": 15,
      "name": "defaultMaterial"
    },
    {
      "mesh": 16,
      "name": "defaultMaterial"
    },
    {
      "children": [
        30,
        31
      ],
      "matrix": [
        1.0,
        0.0,
        0.0,
        0.0,
        0.0,
        1.0,
        0.0,
        0.0,
        0.0,
        0.0,
        1.0,
        0.0,
        0.0,
        1.63549,
        0.0,
        1.0
      ],
      "name": "ND1_L"
    },
    {
      "mesh": 17,
      "name": "defaultMaterial"
    },
    {
      "mesh": 18,
      "name": "defaultMaterial"
    },
    {
      "children": [
        33,
        34
      ],
      "matrix": [
        1.0,
        0.0,
        0.0,
        0.0,
        0.0,
        1.0,
        0.0,
        0.0,
        0.0,
        0.0,
        1.0,
        0.0,
        0.0,
        1.63549,
        0.0,
        1.0
      ],
      "name": "FuzF18"
    },
    {
      "mesh": 19,
      "name": "defaultMaterial"
    },
    {
      "mesh": 20,
      "name": "defaultMaterial"
    },
    {
      "children": [
        36
      ],
      "matrix": [
        1.0,
        0.0,
        0.0,
        0.0,
        0.0,
        1.0,
        0.0,
        0.0,
        0.0,
        0.0,
        1.0,
        0.0,
        0.0,
        1.63549,
        0.0,
        1.0
      ],
      "name": "Cockpit"
    },
    {
      "mesh": 21,
      "name": "defaultMaterial"
    },
    {
      "children": [
        38
      ],
      "matrix": [
        1.0,
        0.0,
        0.0,
        0.0,
        0.0,
        1.0,
        0.0,
        0.0,
        0.0,
        0.0,
        1.0,
        0.0,
        0.0,
        1.63549,
        0.0,
        1.0
      ],
      "name": "Glass"
    },
    {
      "mesh": 22,
      "name": "defaultMaterial"
    },
    {
      "children": [
        40,
        41,
        42
      ],
      "matrix": [
        1.0,
        0.0,
        0.0,
        0.0,
        0.0,
        1.0,
        0.0,
        0.0,
        0.0,
        0.0,
        1.0,
        0.0,
        0.0,
        1.63549,
        0.0,
        1.0
      ],
      "name": "Canopy"
    },
    {
      "mesh": 23,
      "name": "defaultMaterial"
    },
    {
      "mesh": 24,
      "name": "defaultMaterial"
    },
    {
      "mesh": 25,
      "name": "defaultMaterial"
    },
    {
      "children": [
        44
      ],
      "matrix": [
        1.192063,
        0.0,
        0.0,
        0.0,
        0.0,
        0.034488,
        -0.830856,
        0.0,
        0.0,
        1.191037,
        0.049439,
        0.0,
        -0.839769,
        6.195983,
        0.452818,
        1.0
      ],
      "name": "Weapons"
    },
    {
      "mesh": 26,
      "name": "defaultMaterial"
    },
    {
      "children": [
        46,
        47
      ],
      "matrix": [
        0.434087,
        0.899469,
        -0.050245,
        0.0,
        -0.894033,
        0.423262,
        -0.146814,
        0.0,
        -0.110787,
        0.108651,
        0.987887,
        0.0,
        -0.711283,
        1.970107,
        -0.090019,
        1.0
      ],
      "name": "Md3_R"
    },
    {
      "mesh": 27,
      "name": "defaultMaterial"
    },
    {
      "mesh": 28,
      "name": "defaultMaterial"
    }
  ],
  "samplers": [
    {
      "magFilter": 9729,
      "minFilter": 9987,
      "wrapS": 10497,
      "wrapT": 10497
    }
  ],
  "scene": 0,
  "scenes": [
    {
      "name": "Sketchfab_Scene",
      "nodes": [
        0
      ]
    }
  ],
  "textures": [
    {
      "sampler": 0,
      "source": 0
    },
    {
      "sampler": 0,
      "source": 1
    },
    {
      "sampler": 0,
      "source": 2
    },
    {
      "sampler": 0,
      "source": 3
    },
    {
      "sampler": 0,
      "source": 4
    },
    {
      "sampler": 0,
      "source": 5
    },
    {
      "sampler": 0,
      "source": 6
    },
    {
      "sampler": 0,
      "source": 7
    },
    {
      "sampler": 0,
      "source": 8
    },
    {
      "sampler": 0,
      "source": 9
    },
    {
      "sampler": 0,
      "source": 10
    },
    {
      "sampler": 0,
      "source": 11
    },
    {
      "sampler": 0,
      "source": 12
    },
    {
      "sampler": 0,
      "source": 13
    },
    {
      "sampler": 0,
      "source": 14
    },
    {
      "sampler": 0,
      "source": 15
    }
  ]
}
